# xmcd
#
# Track frame offsets: 
#        150
#        18296
#        34845
#        47153
#        62884
#        77167
#        93304
#        108939
#        122019
#        138369
#        152170
#
# Disc length: 2162 seconds
#
# Revision: 0
# Processed by: cddbd v1.5.2PL0 Copyright (c) Steve Scherf et al.
# Submitted via: ExactAudioCopy v1.0b3
#
DISCID=8a08700b
DTITLE=Tòfol Martínez - Hallelujah
DYEAR=2011
DGENRE=Blues
TTITLE0=Shame shame shame
TTITLE1=My babe
TTITLE2=Hallelujah
TTITLE3=Look at little sister
TTITLE4=Blues Man
TTITLE5=Walk on
TTITLE6=Ain’t just like a woman
TTITLE7=Mary had a little lamb
TTITLE8=Watch yourself
TTITLE9=Green light girl
TTITLE10=Every day I have the blues
EXTD=
EXTT0=
EXTT1=
EXTT2=
EXTT3=
EXTT4=
EXTT5=
EXTT6=
EXTT7=
EXTT8=
EXTT9=
EXTT10=
PLAYORDER=
